<svg id="Capa_1" enable-background="new 0 0 498.083 498.083" height="512" viewBox="0 0 498.083 498.083" width="512" xmlns="http://www.w3.org/2000/svg"><g><path d="m458.134 162.259c0 95.462-90.393 213.735-209.039 282.586-113.683-67.155-209.146-186.293-209.146-282.586.03-60.221 48.873-109.016 109.095-108.986 43.485.022 82.8 25.878 100.045 65.797 23.846-55.264 87.976-80.733 143.24-56.887 39.943 17.235 65.81 56.573 65.805 100.076z" fill="#ef5261"/><path d="m236.293 323.603c-.237 0-.486 0-.735 0-4.335-.314-7.994-3.342-9.113-7.542l-37.225-139.417-30.489 61.404c-1.722 3.468-5.259 5.661-9.131 5.663h-139.392c-5.633.005-10.203-4.557-10.208-10.19s4.557-10.203 10.189-10.208h.018 133.066l39.691-79.945c2.507-5.04 8.624-7.094 13.665-4.588 2.62 1.303 4.554 3.67 5.309 6.497l36.596 136.991 44.47-103.763c1.816-3.642 5.468-6.008 9.534-6.178 4.138.065 7.826 2.626 9.333 6.481l25.389 64.754 17.918-19.745c1.931-2.13 4.673-3.345 7.548-3.344h135.147c5.632-.005 10.203 4.557 10.208 10.189s-4.557 10.203-10.189 10.208c-.006 0-.012 0-.018 0h-130.616l-25.935 28.579c-2.357 2.632-5.921 3.838-9.392 3.178-3.48-.635-6.382-3.03-7.667-6.327l-22.312-56.922-46.308 108.033c-1.601 3.747-5.277 6.181-9.351 6.192z" fill="#eeefee"/></g></svg>